<svg width="16" height="16" viewBox="0 0 16 16" fill="none" xmlns="http://www.w3.org/2000/svg">
<g clip-path="url(#clip0_1514_1493)">
<path d="M7.18117 1.7917C7.39986 1.62156 7.66613 1.52379 7.94296 1.51196C8.21979 1.50013 8.49342 1.57484 8.72584 1.7257L8.8185 1.79237L14.4078 6.13903C14.8885 6.51303 14.6545 7.26703 14.0752 7.32903L13.9978 7.33303H13.3332V12.6664C13.3333 13.0028 13.2062 13.3267 12.9775 13.5734C12.7488 13.8201 12.4353 13.9711 12.0998 13.9964L11.9998 13.9997H3.99984C3.66357 13.9996 3.33974 13.8725 3.09323 13.6438C2.84671 13.4151 2.69572 13.1017 2.6705 12.7664L2.6665 12.6664V7.33303H2.00184C1.39317 7.33303 1.11384 6.59437 1.53317 6.1897L1.59184 6.13903L7.18117 1.7917ZM7.99984 2.84437L3.74984 6.1497C3.9025 6.27303 3.99984 6.4617 3.99984 6.67303V12.6664H5.99984V9.33303C5.99984 8.8026 6.21055 8.29389 6.58562 7.91882C6.96069 7.54375 7.4694 7.33303 7.99984 7.33303C8.53027 7.33303 9.03898 7.54375 9.41405 7.91882C9.78912 8.29389 9.99984 8.8026 9.99984 9.33303V12.6664H11.9998V6.67303C11.9998 6.4617 12.0972 6.27303 12.2498 6.1497L7.99984 2.84437ZM7.99984 8.66637C7.82302 8.66637 7.65346 8.73661 7.52843 8.86163C7.40341 8.98665 7.33317 9.15622 7.33317 9.33303V12.6664H8.6665V9.33303C8.6665 9.15622 8.59626 8.98665 8.47124 8.86163C8.34622 8.73661 8.17665 8.66637 7.99984 8.66637Z" fill="#C4C4C4"/>
</g>
<defs>
<clipPath id="clip0_1514_1493">
<rect width="16" height="16" fill="white"/>
</clipPath>
</defs>
</svg>
