<svg width="10" height="12" viewBox="0 0 10 12" fill="none" xmlns="http://www.w3.org/2000/svg">
<path d="M9.44411 3.79815L6.18007 0.19811C6.12398 0.135954 6.05549 0.0862267 5.97902 0.0521259C5.90256 0.0180251 5.8198 0.000305887 5.73607 0.000107987H1.53602C1.33667 -0.0022699 1.1388 0.0346444 0.953712 0.108743C0.768626 0.182842 0.59995 0.292673 0.457315 0.431966C0.314679 0.571258 0.200879 0.737283 0.122412 0.920559C0.0439458 1.10384 0.00234985 1.30077 0 1.50013V10.5002C0.00234985 10.6996 0.0439458 10.8965 0.122412 11.0798C0.200879 11.2631 0.314679 11.4291 0.457315 11.5684C0.59995 11.7077 0.768626 11.8175 0.953712 11.8916C1.1388 11.9657 1.33667 12.0026 1.53602 12.0003H8.0641C8.26345 12.0026 8.46132 11.9657 8.6464 11.8916C8.83149 11.8175 9.00017 11.7077 9.1428 11.5684C9.28544 11.4291 9.39924 11.2631 9.4777 11.0798C9.55617 10.8965 9.59777 10.6996 9.60012 10.5002V4.20016C9.59973 4.05146 9.54413 3.90819 9.44411 3.79815ZM6.00007 1.80013L7.64409 3.60015H6.44408C6.38124 3.59636 6.3198 3.58009 6.26332 3.55229C6.20684 3.52449 6.15647 3.48572 6.11514 3.43825C6.0738 3.39077 6.04234 3.33554 6.02259 3.27577C6.00283 3.216 5.99518 3.1529 6.00007 3.09015V1.80013ZM8.0641 10.8002H1.53602C1.49424 10.8027 1.4524 10.7968 1.41288 10.7831C1.37337 10.7693 1.33696 10.7479 1.30574 10.72C1.27453 10.6921 1.24912 10.6584 1.23098 10.6206C1.21283 10.5829 1.20231 10.542 1.20001 10.5002V1.50013C1.20231 1.45834 1.21283 1.41742 1.23098 1.37971C1.24912 1.34201 1.27453 1.30825 1.30574 1.28038C1.33696 1.25251 1.37337 1.23107 1.41288 1.2173C1.4524 1.20353 1.49424 1.19769 1.53602 1.20012H4.80006V3.09015C4.79037 3.53212 4.95591 3.95999 5.26054 4.28036C5.56518 4.60073 5.98417 4.7876 6.42608 4.80017H8.4001V10.5002C8.3978 10.542 8.38728 10.5829 8.36914 10.6206C8.351 10.6584 8.32559 10.6921 8.29437 10.72C8.26316 10.7479 8.22675 10.7693 8.18723 10.7831C8.14772 10.7968 8.10587 10.8027 8.0641 10.8002Z" fill="#C4C4C4"/>
<path d="M6.00052 6.60041H5.40052V6.0004C5.40052 5.84127 5.3373 5.68865 5.22478 5.57613C5.11226 5.46361 4.95964 5.40039 4.80051 5.40039C4.64138 5.40039 4.48876 5.46361 4.37624 5.57613C4.26372 5.68865 4.2005 5.84127 4.2005 6.0004V6.60041H3.6005C3.44136 6.60041 3.28875 6.66362 3.17623 6.77614C3.0637 6.88867 3.00049 7.04128 3.00049 7.20041C3.00049 7.35954 3.0637 7.51216 3.17623 7.62468C3.28875 7.7372 3.44136 7.80042 3.6005 7.80042H4.2005V8.40043C4.2005 8.55956 4.26372 8.71217 4.37624 8.8247C4.48876 8.93722 4.64138 9.00043 4.80051 9.00043C4.95964 9.00043 5.11226 8.93722 5.22478 8.8247C5.3373 8.71217 5.40052 8.55956 5.40052 8.40043V7.80042H6.00052C6.15966 7.80042 6.31227 7.7372 6.42479 7.62468C6.53732 7.51216 6.60053 7.35954 6.60053 7.20041C6.60053 7.04128 6.53732 6.88867 6.42479 6.77614C6.31227 6.66362 6.15966 6.60041 6.00052 6.60041Z" fill="#C4C4C4"/>
</svg>
